<?xml version="1.0" encoding="UTF-8" standalone="no"?>
<!DOCTYPE svg PUBLIC "-//W3C//DTD SVG 1.1//EN" "http://www.w3.org/Graphics/SVG/1.1/DTD/svg11.dtd">
<svg width="100%" height="100%" viewBox="0 0 941 1066" version="1.1" xmlns="http://www.w3.org/2000/svg" xmlns:xlink="http://www.w3.org/1999/xlink" xml:space="preserve" xmlns:serif="http://www.serif.com/" style="fill-rule:evenodd;clip-rule:evenodd;stroke-linecap:round;stroke-linejoin:bevel;">
    <g transform="matrix(1,0,0,1,-67.4816,-637.708)">
        <g transform="matrix(1,0,0,1,-370.607,1242.57)">
            <g id="g850" transform="matrix(1.77225,0,0,1.77225,-271.999,-740.396)">
                <g id="g1005">
                    <path id="path977" d="M706.85,593.369L714.731,649.074L684.479,667.243" style="fill:none;fill-rule:nonzero;stroke:rgb(145,109,93);stroke-width:4.51px;"/>
                    <path id="path983" d="M743.688,675.281L714.731,649.074L758.212,653.023" style="fill:none;fill-rule:nonzero;stroke:rgb(145,109,93);stroke-width:4.51px;"/>
                    <path id="path991" d="M635.85,593.369L627.968,649.074L658.22,667.243" style="fill:none;fill-rule:nonzero;stroke:rgb(145,109,93);stroke-width:4.51px;"/>
                    <path id="path993" d="M599.012,675.281L627.968,649.074L584.487,653.023" style="fill:none;fill-rule:nonzero;stroke:rgb(145,109,93);stroke-width:4.51px;"/>
                </g>
                <path id="body" d="M877.367,76.478C931.168,201.506 906.235,535.597 819.629,556.593C776.326,586.774 722.525,607.769 664.787,607.769C608.362,607.769 557.185,589.398 514.538,560.529C431.606,443.742 398.722,304.647 449.19,77.646C485.276,95.479 494.461,113.194 515.457,130.909C554.561,108.076 614.923,101.253 664.787,101.253C715.964,101.253 780.262,116.606 817.005,129.203C838,111.488 856.371,88.787 877.367,76.478Z" style="fill:rgb(154,109,90);fill-rule:nonzero;"/>
                <path id="wing" d="M426.62,300.71C353.267,468.674 452.602,547.407 512.57,569.715C534.878,513.289 544.063,438.493 426.62,300.71Z" style="fill:rgb(115,77,56);fill-rule:nonzero;"/>
                <g id="use19" transform="matrix(-1,0,0,1,1332.2,1e-06)">
                    <path d="M426.62,300.71C353.267,468.674 452.602,547.407 512.57,569.715C534.878,513.289 544.063,438.493 426.62,300.71Z" style="fill:rgb(115,77,56);fill-rule:nonzero;"/>
                </g>
                <circle id="circle22" cx="556.529" cy="264.362" r="110.226" style="fill:rgb(205,186,129);"/>
                <circle id="circle24" cx="551.936" cy="261.343" r="81.751" style="fill:white;"/>
                <circle id="circle26" cx="550.624" cy="267.905" r="58.394" style="fill:rgb(26,26,26);"/>
                <circle id="circle28" cx="542.751" cy="244.285" r="15.091" style="fill:white;"/>
                <g id="circle3802" transform="matrix(-1,0,0,1,0,0)">
                    <circle cx="-773.045" cy="264.362" r="110.226" style="fill:rgb(205,186,129);"/>
                </g>
                <g id="circle3804" transform="matrix(-1,0,0,1,0,0)">
                    <circle cx="-777.638" cy="261.343" r="81.751" style="fill:white;"/>
                </g>
                <circle id="circle3806" cx="778.95" cy="267.905" r="58.394" style="fill:rgb(26,26,26);"/>
                <circle id="circle3808" cx="771.077" cy="244.285" r="15.091" style="fill:white;"/>
                <path id="path3830" d="M664.468,336.92C661.808,336.92 635.8,292.919 635.8,292.919C635.8,292.919 658.853,282.54 665.355,282.54C671.857,282.54 694.318,294.102 694.318,294.102C694.318,294.102 667.128,337.511 664.468,336.92Z" style="fill:rgb(217,148,60);fill-rule:nonzero;"/>
            </g>
        </g>
    </g>
</svg>
